<svg id="Layer_1" data-name="Layer 1" xmlns="http://www.w3.org/2000/svg" viewBox="0 0 512 468.29"><defs><style>.cls-1{fill:#010101;}</style></defs><path class="cls-1" d="M373.45,269.2c-18,1.87-36.58,8.82-52.15,19.13-9.38,6.38-24.2,21.2-30.57,30.58a119.38,119.38,0,0,0-17.45,42c-2.25,10.32-2.44,31.33-.38,41.65,7.32,37.52,30,67,63.79,83.1,16.88,8.07,32.64,11.26,52.9,10.51,18.57-.75,30.39-3.57,46.9-11.82,33-16.51,56.09-48.59,61.71-85.36,1.13-7.12,1.13-24.95,0-32.26a114.08,114.08,0,0,0-76.53-92.11c-11.07-3.75-19.89-5.25-33.21-5.44Zm33.4,22.51c37.89,9.57,64.9,39.21,71.09,78.79.75,5.44.38,21.57-.75,27.95-7.88,44.46-46.89,77.29-91.92,77.29-21.95,0-41.64-7.13-59.28-21-23.82-19-37.14-50.84-33.95-80.85a90.41,90.41,0,0,1,8.82-31.71c13.5-27.39,38.26-46.15,69-52C379.46,288.71,397.09,289.27,406.85,291.71Z" transform="translate(0 -28)"/><path class="cls-1" d="M380.58,327.17c-5.44,2.62-5.63,3.56-5.81,24.57l-.19,18.57H356.76c-16.32,0-18.2.19-20.82,1.32a9.68,9.68,0,0,0-4.32,13.69c2.81,5.44,3.75,5.63,24.76,5.63h18.39l.18,18.57c.19,17.26.38,18.76,1.51,21,3.75,6.57,13.69,6.38,17.82,0,1.31-2.06,1.31-3.56,1.31-21V391h18.57c17.26,0,18.76,0,21-1.32,6.94-4.12,6.57-14.63-.56-18.38-2.06-1.13-4.69-1.31-20.82-1.31H395.4V351.36c0-18.38,0-18.57-1.5-21a11.17,11.17,0,0,0-8.63-4.87C384.33,325.85,382.08,326.6,380.58,327.17Z" transform="translate(0 -28)"/><path d="M275.37,436.71q-9.54,8.21-19.41,16.8c-20.84-18.22-40.86-35.28-58.52-50.33l-.09-.08c-50.52-43.05-94.15-80.23-123.48-115.62C43.52,250.86,30,218.29,30,181.87c0-34.51,11.6-66.11,32.67-89C83.43,70.39,112,58,143,58c22.76,0,43.65,7.24,62.1,21.5,16.44,12.72,27.9,28.8,34.61,40.05a18.93,18.93,0,0,0,32.52,0c6.72-11.25,18.17-27.33,34.61-40.05C325.32,65.23,346.21,58,369,58c31.07,0,59.61,12.4,80.37,34.92,21.07,22.85,32.67,54.45,32.67,89,0,33-11.14,62.9-35.85,95.5a121.92,121.92,0,0,1,24,18c28.51-37.73,41.87-74.1,41.87-113.5,0-42.07-14.42-80.88-40.61-109.29C444.88,43.83,408.51,28,369,28c-29.55,0-56.62,9.34-80.44,27.77a164.57,164.57,0,0,0-32.53,34,164.53,164.53,0,0,0-32.52-34C199.65,37.34,172.59,28,143,28,103.49,28,67.12,43.83,40.62,72.58,14.43,101,0,139.8,0,181.87c0,43.3,16.14,82.94,50.78,124.74C81.77,344,126.32,382,177.9,425.93l.09.07c17.59,15,37.53,32,58.22,50.08a30.06,30.06,0,0,0,39.58,0q8.11-7.09,16-13.94A121.13,121.13,0,0,1,275.37,436.71Z" transform="translate(0 -28)"/></svg>