<svg id="Layer_1" data-name="Layer 1" xmlns="http://www.w3.org/2000/svg" viewBox="0 0 512 468.78"><defs><style>.cls-1{fill:#010101;}</style></defs><path class="cls-1" d="M380.27,280.44c-17.15,1.79-34.85,8.4-49.68,18.23-8.93,6.08-23,20.19-29.13,29.13a113.89,113.89,0,0,0-16.62,40c-2.14,9.83-2.32,29.84-.36,39.67,7,35.74,28.6,63.8,60.77,79.17,16.08,7.68,31.09,10.72,50.39,10,17.69-.72,28.95-3.4,44.68-11.26a109.52,109.52,0,0,0,58.79-81.31c1.07-6.79,1.07-23.77,0-30.74a108.68,108.68,0,0,0-72.91-87.75c-10.54-3.57-18.94-5-31.63-5.18Zm31.81,21.45c36.1,9.11,61.83,37.35,67.73,75.05.72,5.19.36,20.56-.71,26.63-7.51,42.36-44.68,73.63-87.57,73.63-20.91,0-39.67-6.79-56.47-20-22.7-18.05-35.38-48.43-32.35-77a86.61,86.61,0,0,1,8.4-30.2c12.87-26.09,36.46-44,65.77-49.5C386,299,402.79,299.56,412.08,301.89Z" transform="translate(0 -28)"/><path class="cls-1" d="M382.3,381.53h-17c-15.55,0-17.33.18-19.84,1.25a9.23,9.23,0,0,0-4.11,13c2.68,5.19,3.58,5.37,23.59,5.37h55c16.45,0,17.88,0,20-1.26,6.61-3.93,6.25-13.93-.54-17.51-2-1.07-4.46-1.25-19.83-1.25H402.13Z" transform="translate(0 -28)"/><path d="M279.14,433.46Q267.81,443.2,256,453.51c-20.84-18.22-40.86-35.28-58.52-50.33l-.09-.08c-50.52-43.05-94.15-80.23-123.48-115.62C43.52,250.86,30,218.29,30,181.87c0-34.51,11.6-66.11,32.67-89C83.43,70.39,112,58,143,58c22.76,0,43.65,7.24,62.1,21.5,16.44,12.72,27.9,28.8,34.61,40.05a18.93,18.93,0,0,0,32.52,0c6.72-11.25,18.17-27.33,34.61-40.05C325.32,65.23,346.21,58,369,58c31.07,0,59.61,12.4,80.37,34.92,21.07,22.85,32.67,54.45,32.67,89,0,34.69-12.29,65.88-39.67,100.41a117.1,117.1,0,0,1,24.85,16.92C497.72,260.1,512,222.6,512,181.87c0-42.07-14.42-80.88-40.61-109.29C444.88,43.83,408.51,28,369,28c-29.55,0-56.62,9.34-80.44,27.77a164.57,164.57,0,0,0-32.53,34,164.53,164.53,0,0,0-32.52-34C199.65,37.34,172.59,28,143,28,103.49,28,67.12,43.83,40.62,72.58,14.43,101,0,139.8,0,181.87c0,43.3,16.14,82.94,50.78,124.74C81.77,344,126.32,382,177.9,425.93l.09.07c17.59,15,37.53,32,58.22,50.08a30.06,30.06,0,0,0,39.58,0q9.4-8.23,18.55-16.12A118,118,0,0,1,279.14,433.46Z" transform="translate(0 -28)"/></svg>